HIERARCHY
ROOT Hip
{
    OFFSET 0.0 0.0 0.0
    CHANNELS 6 Xposition Yposition Zposition Zrotation Xrotation Yrotation
    JOINT RightHip
    {
        OFFSET -106.99298858642578 0.0 0.0
        CHANNELS 3 Zrotation Xrotation Yrotation
        JOINT RightKnee
        {
            OFFSET 0.0 0.0 -388.80108642578125
            CHANNELS 3 Zrotation Xrotation Yrotation
            JOINT RightAnkle
            {
                OFFSET 0.0 0.0 -365.5960693359375
                CHANNELS 3 Zrotation Xrotation Yrotation
                End Site
                {
                    OFFSET 0.0 -146.23843383789062 0.0
                }
            }
        }
    }
    JOINT LeftHip
    {
        OFFSET 106.99298858642578 0.0 0.0
        CHANNELS 3 Zrotation Xrotation Yrotation
        JOINT LeftKnee
        {
            OFFSET 0.0 0.0 -388.80108642578125
            CHANNELS 3 Zrotation Xrotation Yrotation
            JOINT LeftAnkle
            {
                OFFSET 0.0 0.0 -365.5960693359375
                CHANNELS 3 Zrotation Xrotation Yrotation
                End Site
                {
                    OFFSET 0.0 -146.23843383789062 0.0
                }
            }
        }
    }
    JOINT Spine
    {
        OFFSET 0.0 0.0 233.8563690185547
        CHANNELS 3 Zrotation Xrotation Yrotation
        JOINT Thorax
        {
            OFFSET 0.0 0.0 233.8563690185547
            CHANNELS 3 Zrotation Xrotation Yrotation
            JOINT Neck
            {
                OFFSET 0.0 0.0 57.029170989990234
                CHANNELS 3 Zrotation Xrotation Yrotation
                End Site
                {
                    OFFSET 0.0 0.0 22.81166648864746
                }
            }
            JOINT LeftShoulder
            {
                OFFSET 160.2506561279297 0.0 0.0
                CHANNELS 3 Zrotation Xrotation Yrotation
                JOINT LeftElbow
                {
                    OFFSET 232.46737670898438 0.0 0.0
                    CHANNELS 3 Zrotation Xrotation Yrotation
                    JOINT LeftWrist
                    {
                        OFFSET 223.72117614746094 0.0 0.0
                        CHANNELS 3 Zrotation Xrotation Yrotation
                        End Site
                        {
                            OFFSET 89.48846435546875 0.0 0.0
                        }
                    }
                }
            }
            JOINT RightShoulder
            {
                OFFSET -160.2506561279297 0.0 0.0
                CHANNELS 3 Zrotation Xrotation Yrotation
                JOINT RightElbow
                {
                    OFFSET -232.46737670898438 0.0 0.0
                    CHANNELS 3 Zrotation Xrotation Yrotation
                    JOINT RightWrist
                    {
                        OFFSET -223.72117614746094 0.0 0.0
                        CHANNELS 3 Zrotation Xrotation Yrotation
                        End Site
                        {
                            OFFSET -89.48846435546875 0.0 0.0
                        }
                    }
                }
            }
        }
    }
}
MOTION
Frames: 6
Frame Time: 0.03333333333333333
-0.12558746337890625 0.6336040496826172 0.16861534118652344 19.53023676453481 0.55179314666024 -18.332896980857296 3.961706819296055 -17.088031126255583 17.915224033172294 2.345591167253381 26.69455136299631 8.653214733770321 1.9310840053969444e-32 -1.5902773407317584e-15 1.3914926731402886e-15 3.0654635623846387 -13.384249423811056 13.838186504794214 0.6301266133313898 37.81449045946709 13.47210678628893 2.2069531490250793e-32 3.1805546814635168e-15 -7.951386703658792e-16 2.4162013987394434e-07 -1.400007404232806e-06 -3.1807285215079126e-06 -14.551206138303986 6.417857415007297e-07 -1.0384498629550814e-06 157.048361967278 -61.57127799110011 -5.58911323347302 -12.56124035214648 -18.70202186245603 53.84026773327484 -40.42795074339934 -3.5272279559648094e-07 1.4302110822643254e-07 0.0 0.0 -4.770832022195275e-15 -14.024149659462234 -25.903228057632067 -62.66302464873897 38.488839052408856 2.5920183228161142e-06 -1.6828074485091004e-06 -3.3104297235376187e-31 -7.951386703658792e-15 -4.770832022195275e-15
-0.17247390747070312 0.6614723205566406 0.1770315170288086 12.326169861574964 5.55210321322628 -18.95369259620448 4.7488265673913945 -19.510682802025595 18.792794965470137 2.325267055993334 25.672062840726905 4.887367329234747 -2.758691436281349e-33 -1.5902773407317584e-15 -1.987846675914698e-16 4.381852591703899 -18.107875219733295 14.078350937942679 0.18327044172017465 38.70754031158204 16.9836468827828 2.758691436281349e-33 3.975693351829396e-16 -7.951386703658792e-16 3.3374504527357195e-07 -5.012048677384369e-07 -5.022016342679636e-06 -11.450130336763893 -6.055582808733869e-07 4.906127772973259e-07 -76.40283837407728 44.97673754296392 49.47579017231076 -14.875486060346548 -23.729011478065946 51.64659559406074 -36.14409234562759 9.379114609613078e-06 -1.9336849798559743e-06 0.0 0.0 7.951386703658792e-16 -13.922371182919232 -19.639562098417716 -61.21394511323497 35.33903584349004 2.5875955496794253e-06 2.7539565125552394e-06 0.0 0.0 -3.975693351829396e-15
-0.19891357421875 0.6323590278625488 0.1800851821899414 8.157665908829074 9.048594712528054 -18.97637815439873 6.2589621339139185 -24.883444990130307 18.379149594634637 2.0144226264782708 28.078438430802727 5.964588565359024 1.5902773407317584e-15 1.2414111463266072e-32 8.945310041616142e-16 5.514525400579336 -22.23707293979998 14.362755521530522 0.04413122543697336 40.80262648383492 18.15052572516383 -1.5902773407317582e-15 -2.9817700138720468e-15 -1.1927080055488186e-15 -4.229162537961758e-07 1.7735399553619853e-06 1.5789923399731844e-06 -11.34520024597579 -5.120080332923426e-07 7.151396991842195e-07 79.96433334640307 -14.05781824177028 -68.45281409722577 -12.632620221919073 -20.344555179656663 51.03942781487043 -35.18900737761377 1.4841591355056535e-06 3.928016192097288e-06 0.0 0.0 -6.361109362927035e-15 -15.229082166113471 -18.902933592647816 -63.91812328865039 33.30144333775352 1.7858219922805026e-06 2.234919761760795e-06 3.1805546814635168e-15 1.6552148617688094e-31 5.9635400277440935e-15
-0.2089691162109375 0.6441948413848877 0.18269729614257812 5.463832829395941 10.479823040849093 -18.669795606110704 6.8603249137837645 -27.383062472576203 19.02135869542737 2.29702887925931 27.71745932188998 3.656865120039873 7.951386703658794e-16 2.069018577211012e-33 2.981770013872048e-16 5.318724688616379 -21.898322714227714 14.318798095101563 0.23630065001299502 37.92361754180178 16.810001111769893 -1.5902773407317584e-15 5.517382872562698e-33 -3.975693351829396e-16 1.668500423256749e-07 -5.4707089437187764e-08 -1.677191796665954e-06 -8.752621067119811 8.699392380003756e-07 -4.0068705014663847e-07 88.94149054830133 -38.90406917794444 -58.57624248244029 -18.430505572067265 -17.392367287057745 49.46156447522221 -35.95456999387685 2.1399687087694124e-06 2.5448293494318142e-06 -6.3611093629270335e-15 -1.7655625192200634e-31 3.1805546814635168e-15 -14.496275965200352 -14.540250172584729 -64.45654165143617 35.56591074796984 -4.6029546924752695e-06 1.5045990581076659e-06 -4.770832022195275e-15 2.385416011097637e-15 4.770832022195275e-15
-0.22450637817382812 0.6409783363342285 0.18148565292358398 4.154523097106756 11.81177232644603 -18.86445844385679 10.199489350009376 -36.58710346970327 21.254939900447265 3.311838744872528 36.53661348571899 1.431350214296373 7.951386703658792e-16 1.7241821476758432e-33 2.4848083448933725e-16 5.384591371379926 -21.47403327046434 14.520127403011783 0.06620488364074839 39.09496760812701 16.933482654647097 1.5902773407317588e-15 -9.939233379573495e-17 -1.9878466759146984e-15 1.3594187273483938e-07 -8.377317148869161e-07 1.5979118186599107e-08 -8.443235940005767 2.139416254013936e-07 4.877369306829119e-07 91.99955083945206 -44.991616144495474 -56.554906733002305 -25.73183428704652 -7.661735548552422 48.599366483409874 -39.65278376888641 -1.4254216394766972e-06 -7.292995316943881e-06 0.0 0.0 0.0 -14.818005117955593 -13.451606669063192 -65.79313817328257 33.48098890167548 4.946248831572497e-07 4.066134451293797e-06 3.975693351829395e-15 2.0690185772110117e-32 5.963540027744093e-16
-0.2430419921875 0.644843339920044 0.1834249496459961 4.1365654451920095 14.80834122323835 -19.21952482384787 11.938362748436683 -40.23167727108193 21.08909831429692 2.277234822771884 37.512856452552604 4.380235123191579 0.0 0.0 -9.93923337957349e-17 6.040511739185796 -23.285909908106074 15.181121840116392 0.1613716284623782 39.53520245278797 14.22747167212637 1.1034765745125397e-32 3.1805546814635168e-15 -3.975693351829396e-16 2.3806664217185466e-07 -1.5540315599195033e-06 3.419872378357478e-06 -5.933582223771294 1.1245213789017918e-06 -3.099063651306343e-06 -27.088341918029855 64.50779163019143 0.360846149843139 -32.303220086504325 -1.7032281008895995 47.03068178329733 -43.47683576730256 6.642689339081599e-06 5.49740673344043e-06 -6.361109362927035e-15 -8.827812596100317e-32 1.5902773407317588e-15 -18.572149476977536 -15.11037149375446 -67.45011663568462 32.72226328522556 -2.2679456719825016e-06 -5.316781888925875e-07 1.9878466759146976e-15 -3.793200724886855e-32 -2.1866313435061676e-15
